<svg width="152" height="43" viewBox="0 0 152 43" fill="none" xmlns="http://www.w3.org/2000/svg">
<path d="M60.032 20.24C58.752 20.24 57.56 20.032 56.456 19.616C55.368 19.184 54.416 18.584 53.6 17.816C52.8 17.032 52.176 16.112 51.728 15.056C51.28 14 51.056 12.848 51.056 11.6C51.056 10.352 51.28 9.2 51.728 8.144C52.176 7.088 52.808 6.176 53.624 5.408C54.44 4.624 55.392 4.024 56.48 3.608C57.568 3.176 58.76 2.96 60.056 2.96C61.432 2.96 62.688 3.2 63.824 3.68C64.96 4.144 65.92 4.84 66.704 5.768L64.688 7.664C64.08 7.008 63.4 6.52 62.648 6.2C61.896 5.864 61.08 5.696 60.2 5.696C59.32 5.696 58.512 5.84 57.776 6.128C57.056 6.416 56.424 6.824 55.88 7.352C55.352 7.88 54.936 8.504 54.632 9.224C54.344 9.944 54.2 10.736 54.2 11.6C54.2 12.464 54.344 13.256 54.632 13.976C54.936 14.696 55.352 15.32 55.88 15.848C56.424 16.376 57.056 16.784 57.776 17.072C58.512 17.36 59.32 17.504 60.2 17.504C61.08 17.504 61.896 17.344 62.648 17.024C63.4 16.688 64.08 16.184 64.688 15.512L66.704 17.432C65.92 18.344 64.96 19.04 63.824 19.52C62.688 20 61.424 20.24 60.032 20.24ZM77.1843 20V17.408L77.0163 16.856V12.32C77.0163 11.44 76.7523 10.76 76.2243 10.28C75.6963 9.784 74.8963 9.536 73.8243 9.536C73.1043 9.536 72.3923 9.648 71.6883 9.872C71.0003 10.096 70.4163 10.408 69.9363 10.808L68.7603 8.624C69.4483 8.096 70.2643 7.704 71.2083 7.448C72.1683 7.176 73.1603 7.04 74.1843 7.04C76.0403 7.04 77.4723 7.488 78.4803 8.384C79.5043 9.264 80.0163 10.632 80.0163 12.488V20H77.1843ZM73.1523 20.168C72.1923 20.168 71.3523 20.008 70.6323 19.688C69.9123 19.352 69.3523 18.896 68.9523 18.32C68.5683 17.728 68.3763 17.064 68.3763 16.328C68.3763 15.608 68.5443 14.96 68.8803 14.384C69.2323 13.808 69.8003 13.352 70.5843 13.016C71.3683 12.68 72.4083 12.512 73.7043 12.512H77.4243V14.504H73.9203C72.8963 14.504 72.2083 14.672 71.8563 15.008C71.5043 15.328 71.3283 15.728 71.3283 16.208C71.3283 16.752 71.5443 17.184 71.9763 17.504C72.4083 17.824 73.0083 17.984 73.7763 17.984C74.5123 17.984 75.1683 17.816 75.7443 17.48C76.3363 17.144 76.7603 16.648 77.0163 15.992L77.5203 17.792C77.2323 18.544 76.7123 19.128 75.9603 19.544C75.2243 19.96 74.2883 20.168 73.1523 20.168ZM87.8264 20.168C86.7544 20.168 85.7224 20.032 84.7304 19.76C83.7544 19.472 82.9784 19.128 82.4024 18.728L83.5544 16.448C84.1304 16.816 84.8184 17.12 85.6184 17.36C86.4184 17.6 87.2184 17.72 88.0184 17.72C88.9624 17.72 89.6424 17.592 90.0584 17.336C90.4904 17.08 90.7064 16.736 90.7064 16.304C90.7064 15.952 90.5624 15.688 90.2744 15.512C89.9864 15.32 89.6104 15.176 89.1464 15.08C88.6824 14.984 88.1624 14.896 87.5864 14.816C87.0264 14.736 86.4584 14.632 85.8824 14.504C85.3224 14.36 84.8104 14.16 84.3464 13.904C83.8824 13.632 83.5064 13.272 83.2184 12.824C82.9304 12.376 82.7864 11.784 82.7864 11.048C82.7864 10.232 83.0184 9.528 83.4824 8.936C83.9464 8.328 84.5944 7.864 85.4264 7.544C86.2744 7.208 87.2744 7.04 88.4264 7.04C89.2904 7.04 90.1624 7.136 91.0424 7.328C91.9224 7.52 92.6504 7.792 93.2264 8.144L92.0744 10.424C91.4664 10.056 90.8504 9.808 90.2264 9.68C89.6184 9.536 89.0104 9.464 88.4024 9.464C87.4904 9.464 86.8104 9.6 86.3624 9.872C85.9304 10.144 85.7144 10.488 85.7144 10.904C85.7144 11.288 85.8584 11.576 86.1464 11.768C86.4344 11.96 86.8104 12.112 87.2744 12.224C87.7384 12.336 88.2504 12.432 88.8104 12.512C89.3864 12.576 89.9544 12.68 90.5144 12.824C91.0744 12.968 91.5864 13.168 92.0504 13.424C92.5304 13.664 92.9144 14.008 93.2024 14.456C93.4904 14.904 93.6344 15.488 93.6344 16.208C93.6344 17.008 93.3944 17.704 92.9144 18.296C92.4504 18.888 91.7864 19.352 90.9224 19.688C90.0584 20.008 89.0264 20.168 87.8264 20.168ZM101.042 20.168C99.634 20.168 98.546 19.808 97.778 19.088C97.01 18.352 96.626 17.272 96.626 15.848V4.352H99.626V15.776C99.626 16.384 99.778 16.856 100.082 17.192C100.402 17.528 100.842 17.696 101.402 17.696C102.074 17.696 102.634 17.52 103.082 17.168L103.922 19.304C103.57 19.592 103.138 19.808 102.626 19.952C102.114 20.096 101.586 20.168 101.042 20.168ZM94.514 9.68V7.28H103.058V9.68H94.514ZM111.992 20.168C110.568 20.168 109.32 19.888 108.248 19.328C107.192 18.752 106.368 17.968 105.776 16.976C105.2 15.984 104.912 14.856 104.912 13.592C104.912 12.312 105.192 11.184 105.752 10.208C106.328 9.216 107.112 8.44 108.104 7.88C109.112 7.32 110.256 7.04 111.536 7.04C112.784 7.04 113.896 7.312 114.872 7.856C115.848 8.4 116.616 9.168 117.176 10.16C117.736 11.152 118.016 12.32 118.016 13.664C118.016 13.792 118.008 13.936 117.992 14.096C117.992 14.256 117.984 14.408 117.968 14.552H107.288V12.56H116.384L115.208 13.184C115.224 12.448 115.072 11.8 114.752 11.24C114.432 10.68 113.992 10.24 113.432 9.92C112.888 9.6 112.256 9.44 111.536 9.44C110.8 9.44 110.152 9.6 109.592 9.92C109.048 10.24 108.616 10.688 108.296 11.264C107.992 11.824 107.84 12.488 107.84 13.256V13.736C107.84 14.504 108.016 15.184 108.368 15.776C108.72 16.368 109.216 16.824 109.856 17.144C110.496 17.464 111.232 17.624 112.064 17.624C112.784 17.624 113.432 17.512 114.008 17.288C114.584 17.064 115.096 16.712 115.544 16.232L117.152 18.08C116.576 18.752 115.848 19.272 114.968 19.64C114.104 19.992 113.112 20.168 111.992 20.168ZM120.898 20V2.192H123.898V20H120.898ZM127.187 14.576V12.08H133.787V14.576H127.187ZM136.445 14.576V12.08H143.045V14.576H136.445ZM60.032 41.24C58.752 41.24 57.56 41.032 56.456 40.616C55.368 40.184 54.416 39.584 53.6 38.816C52.8 38.032 52.176 37.112 51.728 36.056C51.28 35 51.056 33.848 51.056 32.6C51.056 31.352 51.28 30.2 51.728 29.144C52.176 28.088 52.808 27.176 53.624 26.408C54.44 25.624 55.392 25.024 56.48 24.608C57.568 24.176 58.76 23.96 60.056 23.96C61.432 23.96 62.688 24.2 63.824 24.68C64.96 25.144 65.92 25.84 66.704 26.768L64.688 28.664C64.08 28.008 63.4 27.52 62.648 27.2C61.896 26.864 61.08 26.696 60.2 26.696C59.32 26.696 58.512 26.84 57.776 27.128C57.056 27.416 56.424 27.824 55.88 28.352C55.352 28.88 54.936 29.504 54.632 30.224C54.344 30.944 54.2 31.736 54.2 32.6C54.2 33.464 54.344 34.256 54.632 34.976C54.936 35.696 55.352 36.32 55.88 36.848C56.424 37.376 57.056 37.784 57.776 38.072C58.512 38.36 59.32 38.504 60.2 38.504C61.08 38.504 61.896 38.344 62.648 38.024C63.4 37.688 64.08 37.184 64.688 36.512L66.704 38.432C65.92 39.344 64.96 40.04 63.824 40.52C62.688 41 61.424 41.24 60.032 41.24ZM69.4055 41V28.184H72.2615V31.712L71.9255 30.68C72.3095 29.816 72.9095 29.16 73.7255 28.712C74.5575 28.264 75.5895 28.04 76.8215 28.04V30.896C76.6935 30.864 76.5735 30.848 76.4615 30.848C76.3495 30.832 76.2375 30.824 76.1255 30.824C74.9895 30.824 74.0855 31.16 73.4135 31.832C72.7415 32.488 72.4055 33.472 72.4055 34.784V41H69.4055ZM85.2733 41.168C83.8493 41.168 82.6013 40.888 81.5293 40.328C80.4733 39.752 79.6493 38.968 79.0573 37.976C78.4813 36.984 78.1933 35.856 78.1933 34.592C78.1933 33.312 78.4733 32.184 79.0333 31.208C79.6093 30.216 80.3933 29.44 81.3853 28.88C82.3933 28.32 83.5373 28.04 84.8173 28.04C86.0653 28.04 87.1773 28.312 88.1533 28.856C89.1293 29.4 89.8973 30.168 90.4573 31.16C91.0173 32.152 91.2973 33.32 91.2973 34.664C91.2973 34.792 91.2893 34.936 91.2733 35.096C91.2733 35.256 91.2653 35.408 91.2493 35.552H80.5693V33.56H89.6653L88.4893 34.184C88.5053 33.448 88.3533 32.8 88.0333 32.24C87.7133 31.68 87.2733 31.24 86.7133 30.92C86.1693 30.6 85.5373 30.44 84.8173 30.44C84.0813 30.44 83.4333 30.6 82.8733 30.92C82.3293 31.24 81.8973 31.688 81.5773 32.264C81.2733 32.824 81.1213 33.488 81.1213 34.256V34.736C81.1213 35.504 81.2973 36.184 81.6493 36.776C82.0013 37.368 82.4973 37.824 83.1373 38.144C83.7773 38.464 84.5133 38.624 85.3453 38.624C86.0653 38.624 86.7133 38.512 87.2893 38.288C87.8653 38.064 88.3773 37.712 88.8253 37.232L90.4333 39.08C89.8573 39.752 89.1293 40.272 88.2493 40.64C87.3853 40.992 86.3933 41.168 85.2733 41.168ZM101.723 41V38.408L101.555 37.856V33.32C101.555 32.44 101.291 31.76 100.763 31.28C100.235 30.784 99.4354 30.536 98.3634 30.536C97.6434 30.536 96.9314 30.648 96.2274 30.872C95.5394 31.096 94.9554 31.408 94.4754 31.808L93.2994 29.624C93.9874 29.096 94.8034 28.704 95.7474 28.448C96.7074 28.176 97.6994 28.04 98.7234 28.04C100.579 28.04 102.011 28.488 103.019 29.384C104.043 30.264 104.555 31.632 104.555 33.488V41H101.723ZM97.6914 41.168C96.7314 41.168 95.8914 41.008 95.1714 40.688C94.4514 40.352 93.8914 39.896 93.4914 39.32C93.1074 38.728 92.9154 38.064 92.9154 37.328C92.9154 36.608 93.0834 35.96 93.4194 35.384C93.7714 34.808 94.3394 34.352 95.1234 34.016C95.9074 33.68 96.9474 33.512 98.2434 33.512H101.963V35.504H98.4594C97.4354 35.504 96.7474 35.672 96.3954 36.008C96.0434 36.328 95.8674 36.728 95.8674 37.208C95.8674 37.752 96.0834 38.184 96.5154 38.504C96.9474 38.824 97.5474 38.984 98.3154 38.984C99.0514 38.984 99.7074 38.816 100.283 38.48C100.875 38.144 101.299 37.648 101.555 36.992L102.059 38.792C101.771 39.544 101.251 40.128 100.499 40.544C99.7634 40.96 98.8274 41.168 97.6914 41.168ZM113.23 41.168C111.822 41.168 110.734 40.808 109.965 40.088C109.198 39.352 108.814 38.272 108.814 36.848V25.352H111.814V36.776C111.814 37.384 111.966 37.856 112.27 38.192C112.59 38.528 113.03 38.696 113.59 38.696C114.262 38.696 114.822 38.52 115.27 38.168L116.11 40.304C115.758 40.592 115.326 40.808 114.814 40.952C114.302 41.096 113.774 41.168 113.23 41.168ZM106.702 30.68V28.28H115.246V30.68H106.702ZM118.577 41V28.184H121.577V41H118.577ZM120.089 26.072C119.529 26.072 119.065 25.896 118.697 25.544C118.345 25.192 118.169 24.768 118.169 24.272C118.169 23.76 118.345 23.336 118.697 23C119.065 22.648 119.529 22.472 120.089 22.472C120.649 22.472 121.105 22.64 121.457 22.976C121.825 23.296 122.009 23.704 122.009 24.2C122.009 24.728 121.833 25.176 121.481 25.544C121.129 25.896 120.665 26.072 120.089 26.072ZM128.923 41L123.427 28.184H126.547L131.275 39.488H129.739L134.635 28.184H137.515L132.019 41H128.923ZM145.062 41.168C143.638 41.168 142.39 40.888 141.318 40.328C140.262 39.752 139.438 38.968 138.846 37.976C138.27 36.984 137.982 35.856 137.982 34.592C137.982 33.312 138.262 32.184 138.822 31.208C139.398 30.216 140.182 29.44 141.174 28.88C142.182 28.32 143.326 28.04 144.606 28.04C145.854 28.04 146.966 28.312 147.942 28.856C148.918 29.4 149.686 30.168 150.246 31.16C150.806 32.152 151.086 33.32 151.086 34.664C151.086 34.792 151.078 34.936 151.062 35.096C151.062 35.256 151.054 35.408 151.038 35.552H140.358V33.56H149.454L148.278 34.184C148.294 33.448 148.142 32.8 147.822 32.24C147.502 31.68 147.062 31.24 146.502 30.92C145.958 30.6 145.326 30.44 144.606 30.44C143.87 30.44 143.222 30.6 142.662 30.92C142.118 31.24 141.686 31.688 141.366 32.264C141.062 32.824 140.91 33.488 140.91 34.256V34.736C140.91 35.504 141.086 36.184 141.438 36.776C141.79 37.368 142.286 37.824 142.926 38.144C143.566 38.464 144.302 38.624 145.134 38.624C145.854 38.624 146.502 38.512 147.078 38.288C147.654 38.064 148.166 37.712 148.614 37.232L150.222 39.08C149.646 39.752 148.918 40.272 148.038 40.64C147.174 40.992 146.182 41.168 145.062 41.168Z" fill="url(#paint0_linear_8_74)"/>
<path fill-rule="evenodd" clip-rule="evenodd" d="M10 0C15.5228 0 20 4.47715 20 10V0H30C35.5228 0 40 4.47715 40 10C40 15.5228 35.5228 20 30 20C35.5228 20 40 24.4772 40 30C40 32.7423 38.8961 35.2268 37.1085 37.0334L37.0711 37.0711L37.0379 37.1041C35.2309 38.8943 32.7446 40 30 40C27.2741 40 24.8029 38.9093 22.999 37.1405C22.9756 37.1175 22.9522 37.0943 22.9289 37.0711C22.907 37.0492 22.8852 37.0272 22.8635 37.0051C21.0924 35.2009 20 32.728 20 30C20 35.5228 15.5228 40 10 40C4.47715 40 0 35.5228 0 30V20H10C4.47715 20 0 15.5228 0 10C0 4.47715 4.47715 0 10 0ZM18 10C18 14.4183 14.4183 18 10 18V2C14.4183 2 18 5.58172 18 10ZM38 30C38 25.5817 34.4183 22 30 22C25.5817 22 22 25.5817 22 30H38ZM2 22V30C2 34.4183 5.58172 38 10 38C14.4183 38 18 34.4183 18 30V22H2ZM22 18V2H30C34.4183 2 38 5.58172 38 10C38 14.4183 34.4183 18 30 18H22Z" fill="url(#paint1_linear_8_74)"/>
<defs>
<linearGradient id="paint0_linear_8_74" x1="101.475" y1="4.69554" x2="102.283" y2="45.6827" gradientUnits="userSpaceOnUse">
<stop stop-color="#0B3948"/>
<stop offset="1" stop-color="#1D6F8A"/>
</linearGradient>
<linearGradient id="paint1_linear_8_74" x1="20.1864" y1="3.51956" x2="22.0506" y2="42.4809" gradientUnits="userSpaceOnUse">
<stop stop-color="#0B3948"/>
<stop offset="1" stop-color="#1D6F8A"/>
</linearGradient>
</defs>
</svg>
