<svg width="170" height="44" viewBox="0 0 170 44" fill="none" xmlns="http://www.w3.org/2000/svg">
<path d="M50.5476 13.8463H54.6605V30.525H50.5476V13.8463ZM56.292 24.2275C56.292 20.1025 58.8145 17.6413 62.7081 17.6413C66.6016 17.6413 69.1242 20.1025 69.1242 24.2275C69.1242 28.3525 66.6565 30.8275 62.7081 30.8275C58.7597 30.8275 56.292 28.4213 56.292 24.2275ZM64.9976 24.2275C64.9976 21.9588 64.1065 20.625 62.7081 20.625C61.3097 20.625 60.4323 22 60.4323 24.2275C60.4323 26.455 61.296 27.8025 62.7081 27.8025C64.1202 27.8025 64.9976 26.5375 64.9976 24.2413V24.2275ZM70.6734 31.3363H74.6218C74.8098 31.7549 75.1274 32.1016 75.5276 32.3246C75.9278 32.5475 76.3891 32.6349 76.8428 32.5738C78.4057 32.5738 79.2283 31.7213 79.2283 30.4838V28.1738H79.146C78.8183 28.8817 78.2865 29.4749 77.6194 29.877C76.9523 30.2789 76.1803 30.4711 75.4033 30.4288C72.4008 30.4288 70.4129 28.1325 70.4129 24.1863C70.4129 20.24 72.3049 17.7513 75.4581 17.7513C76.2596 17.7198 77.0514 17.9347 77.7277 18.3671C78.404 18.7997 78.9324 19.4292 79.242 20.1713V17.875H83.3549V30.3875C83.3549 33.3988 80.7089 35.2688 76.8016 35.2688C73.1686 35.2688 70.9065 33.6325 70.6734 31.35V31.3363ZM79.242 24.2138C79.242 22.2063 78.3234 20.9413 76.8702 20.9413C75.417 20.9413 74.5258 22.1925 74.5258 24.2138C74.5258 26.235 75.4033 27.3763 76.8702 27.3763C78.3371 27.3763 79.242 26.2625 79.242 24.2275V24.2138ZM84.9041 24.2138C84.9041 20.0888 87.4266 17.6275 91.3202 17.6275C95.2137 17.6275 97.75 20.0888 97.75 24.2138C97.75 28.3388 95.2823 30.8138 91.3202 30.8138C87.3581 30.8138 84.9041 28.4213 84.9041 24.2275V24.2138ZM93.6097 24.2138C93.6097 21.945 92.7186 20.6113 91.3202 20.6113C89.9218 20.6113 89.1129 22 89.1129 24.2413C89.1129 26.4825 89.9766 27.8163 91.375 27.8163C92.7734 27.8163 93.6097 26.5375 93.6097 24.2413V24.2138ZM99.3129 14.8775C99.3021 14.461 99.4149 14.0507 99.6369 13.6986C99.859 13.3465 100.18 13.0684 100.56 12.8996C100.94 12.7308 101.361 12.6789 101.77 12.7505C102.179 12.822 102.558 13.0139 102.859 13.3016C103.159 13.5894 103.367 13.9601 103.457 14.3668C103.548 14.7736 103.515 15.1979 103.364 15.5862C103.214 15.9743 102.951 16.309 102.611 16.5476C102.271 16.7861 101.867 16.918 101.452 16.9263C101.176 16.9452 100.9 16.9069 100.64 16.8136C100.38 16.7204 100.143 16.5744 99.9418 16.3845C99.7409 16.1948 99.5814 15.9653 99.4732 15.7106C99.3649 15.4561 99.3103 15.1818 99.3129 14.905V14.8775ZM99.3129 17.9025H103.426V30.525H99.3129V17.9025ZM118.356 24.2138C118.356 28.3388 116.532 30.69 113.406 30.69C112.605 30.7416 111.807 30.5451 111.12 30.1271C110.434 29.7089 109.892 29.0895 109.568 28.3525H109.486V34.5675H105.373V17.875H109.486V20.13H109.568C109.877 19.3808 110.408 18.7452 111.09 18.3098C111.772 17.8743 112.571 17.6601 113.379 17.6963C116.532 17.7513 118.411 20.1163 118.411 24.2413L118.356 24.2138ZM114.243 24.2138C114.243 22.2063 113.324 20.9275 111.885 20.9275C110.445 20.9275 109.527 22.22 109.513 24.2138C109.499 26.2075 110.445 27.4863 111.885 27.4863C113.324 27.4863 114.243 26.235 114.243 24.2413V24.2138ZM125.416 17.6138C128.83 17.6138 130.9 19.2363 130.996 21.835H127.253C127.253 20.9413 126.513 20.3775 125.375 20.3775C124.237 20.3775 123.73 20.8175 123.73 21.4638C123.73 22.11 124.182 22.3163 125.101 22.5088L127.733 23.045C130.242 23.5813 131.311 24.5988 131.311 26.51C131.311 29.1225 128.94 30.8 125.444 30.8C121.948 30.8 119.658 29.1225 119.48 26.5513H123.442C123.565 27.4863 124.306 28.0363 125.512 28.0363C126.719 28.0363 127.267 27.6375 127.267 26.9775C127.267 26.3175 126.883 26.18 125.896 25.9738L123.524 25.465C121.07 24.9563 119.781 23.65 119.781 21.725C119.809 19.25 122.016 17.6413 125.416 17.6413V17.6138ZM145.035 30.4975H141.073V28.1463H140.99C140.772 28.9356 140.293 29.6266 139.629 30.1044C138.965 30.5821 138.159 30.8179 137.344 30.7725C136.719 30.8081 136.094 30.7088 135.51 30.4813C134.927 30.2537 134.399 29.9034 133.962 29.4536C133.526 29.004 133.19 28.4654 132.979 27.8746C132.768 27.2837 132.685 26.6542 132.737 26.0288V17.875H136.85V25.08C136.85 26.5788 137.618 27.3763 138.893 27.3763C139.192 27.3768 139.488 27.3134 139.761 27.1901C140.032 27.0667 140.276 26.8863 140.473 26.6611C140.67 26.4358 140.818 26.1708 140.904 25.884C140.99 25.597 141.016 25.2948 140.977 24.9975V17.875H145.09L145.035 30.4975ZM147.023 17.875H150.998V20.3088H151.081C151.299 19.5298 151.769 18.8453 152.416 18.3627C153.063 17.8801 153.853 17.6263 154.659 17.6413C155.48 17.5754 156.294 17.8217 156.943 18.3312C157.59 18.8408 158.023 19.5762 158.155 20.3913H158.237C158.485 19.5675 159.001 18.8503 159.701 18.3524C160.4 17.8545 161.246 17.6043 162.103 17.6413C162.663 17.6224 163.219 17.7218 163.737 17.933C164.257 18.1441 164.725 18.4624 165.113 18.8669C165.501 19.2716 165.799 19.7535 165.99 20.2814C166.179 20.8093 166.257 21.3715 166.216 21.9313V30.525H162.103V23.0313C162.103 21.6563 161.486 21.0238 160.335 21.0238C160.078 21.0216 159.823 21.0746 159.589 21.1794C159.354 21.2842 159.145 21.4382 158.975 21.6311C158.805 21.824 158.677 22.0512 158.602 22.2974C158.526 22.5438 158.506 22.8034 158.539 23.0588V30.525H154.631V22.9763C154.631 21.7113 154.015 21.0238 152.89 21.0238C152.631 21.0239 152.373 21.0792 152.138 21.186C151.9 21.293 151.688 21.449 151.517 21.6439C151.344 21.8387 151.215 22.0681 151.137 22.3168C151.06 22.5654 151.035 22.8276 151.067 23.0863V30.525H146.954L147.023 17.875Z" fill="#454545"/>
<path d="M39.0452 14.6025C38.3475 13.0025 37.4241 11.5114 36.3032 10.175C34.6464 8.14044 32.5787 6.48089 30.2363 5.30555C27.8939 4.13023 25.3297 3.46576 22.7128 3.35588C20.0959 3.24601 17.4855 3.69321 15.0532 4.66809C12.6211 5.64295 10.4224 7.12337 8.60175 9.0119C6.78113 10.9004 5.37993 13.1543 4.49038 15.6251C3.60083 18.0958 3.24308 20.7276 3.44069 23.3469C3.63831 25.9664 4.38679 28.5142 5.63689 30.8225C6.887 33.131 8.61037 35.1477 10.6936 36.74C12.0303 37.7821 13.5073 38.6292 15.0807 39.2562C17.2866 40.1629 19.6475 40.6298 22.0315 40.6312C26.9524 40.6204 31.6683 38.653 35.1455 35.1605C38.6225 31.668 40.5771 26.9354 40.5807 22C40.5842 19.4542 40.0615 16.9353 39.0452 14.6025ZM22.0178 7.13621C24.1587 7.13599 26.2737 7.60528 28.2145 8.51121C27.7413 8.71632 27.2436 8.85958 26.7339 8.93747C25.0567 9.18097 23.5029 9.96195 22.3046 11.1638C21.1062 12.3657 20.3275 13.924 20.0847 15.6062C19.9782 16.5496 19.5503 17.4273 18.8735 18.0911C18.1966 18.755 17.3122 19.1642 16.3694 19.25C14.6921 19.4935 13.1384 20.2745 11.94 21.4764C10.7417 22.6783 9.96298 24.2366 9.7202 25.9187C9.638 26.8158 9.25639 27.6588 8.63713 28.3112C7.56867 26.047 7.08869 23.5484 7.24186 21.0481C7.39502 18.5478 8.17635 16.1269 9.51314 14.0108C10.8499 11.8948 12.6987 10.1523 14.8875 8.9455C17.0763 7.73871 19.5338 7.10685 22.0315 7.10871L22.0178 7.13621ZM10.6799 31.625C10.8444 31.4737 11.0089 31.3362 11.1734 31.1712C12.3931 29.9853 13.176 28.4197 13.3944 26.73C13.4829 25.7801 13.9058 24.893 14.5871 24.2275C15.2429 23.543 16.1253 23.1224 17.0686 23.045C18.7458 22.8015 20.2995 22.0205 21.4979 20.8186C22.6963 19.6167 23.475 18.0584 23.7178 16.3762C23.7771 15.3828 24.2021 14.4468 24.9105 13.75C25.5824 13.0788 26.4733 12.6735 27.4194 12.6087C28.9602 12.3961 30.3973 11.7091 31.5323 10.6425C32.8247 11.7178 33.9195 13.0114 34.7678 14.465C34.7157 14.5355 34.6559 14.6001 34.5895 14.6575C33.9352 15.348 33.0538 15.7778 32.1081 15.8675C30.4291 16.1067 28.873 16.8863 27.6738 18.0889C26.4748 19.2916 25.6974 20.8523 25.4589 22.5362C25.3622 23.4828 24.9423 24.3668 24.2703 25.0383C23.5981 25.71 22.7152 26.1279 21.771 26.2212C20.0888 26.4628 18.5293 27.2423 17.324 28.4436C16.1188 29.6451 15.332 31.2044 15.0807 32.89C15.0069 33.5619 14.7767 34.2072 14.4089 34.7737C13.0023 33.9361 11.7425 32.8724 10.6799 31.625ZM22.0178 36.9325C20.6266 36.934 19.2421 36.7396 17.9049 36.355C18.3624 35.4997 18.6597 34.5676 18.7823 33.605C18.8784 32.6605 19.2964 31.7781 19.9657 31.1069C20.635 30.4356 21.5148 30.0164 22.4565 29.92C24.1362 29.6792 25.6931 28.8994 26.8942 27.6973C28.0951 26.4953 28.8759 24.9353 29.1194 23.2512C29.2155 22.3067 29.6335 21.4244 30.3028 20.7531C30.9721 20.0818 31.8519 19.6626 32.7936 19.5662C34.0576 19.4014 35.2624 18.9293 36.3032 18.1912C36.8812 20.3883 36.9497 22.689 36.5034 24.9168C36.0572 27.1445 35.1079 29.2403 33.7287 31.0431C32.3495 32.8457 30.577 34.3077 28.5469 35.3167C26.5169 36.3257 24.2834 36.8549 22.0178 36.8637V36.9325Z" fill="#454545"/>
</svg>
