<svg width="209" height="26" viewBox="0 0 209 26" fill="none" xmlns="http://www.w3.org/2000/svg">
<path d="M104.078 22.4065H97.0379V3.67557H104.078V22.4065ZM97.7254 21.7223H103.39V4.35978H97.7254V21.7223ZM113.873 22.4065H106.975V3.67557H121.388C123.452 3.50917 125.509 4.08605 127.182 5.30125C127.902 5.95715 128.461 6.76983 128.813 7.67586C129.166 8.5819 129.304 9.55681 129.216 10.5245C129.318 12.1967 128.784 13.8459 127.718 15.1429C126.457 16.5825 124.359 17.3242 121.483 17.3502C120.758 17.3694 115.328 17.3502 113.878 17.3502L113.873 22.4065ZM107.658 21.7223H113.186V16.6591H113.531C113.601 16.6591 120.651 16.681 121.466 16.6591C124.146 16.6359 126.072 15.9749 127.199 14.6845C128.147 13.511 128.618 12.0259 128.519 10.5231C128.603 9.65607 128.486 8.78127 128.176 7.96658C127.866 7.15189 127.371 6.41921 126.731 5.82535C125.179 4.71707 123.281 4.19684 121.378 4.35841H107.663L107.658 21.7223ZM119.928 13.1423H113.139V8.04356H119.973C120.457 7.97695 120.951 8.03322 121.407 8.20713C121.864 8.38106 122.269 8.66699 122.585 9.03841C122.872 9.51317 123.007 10.0633 122.973 10.6162C122.999 11.1295 122.887 11.6404 122.65 12.0968C122.324 12.488 121.902 12.7892 121.425 12.9713C120.949 13.1535 120.433 13.2105 119.928 13.1368V13.1423ZM113.827 12.4581H119.928C121.055 12.4581 121.754 12.2241 122.063 11.7424C122.233 11.3923 122.31 11.0045 122.287 10.6162C122.317 10.2085 122.228 9.80081 122.031 9.44209L122.023 9.42978C121.696 8.95083 121.045 8.72778 119.973 8.72778H113.827V12.4581ZM141.762 22.6829C135.589 22.6829 131.904 21.1571 130.5 18.0194C130.27 17.4133 130.114 16.782 130.035 16.1391L129.975 15.745H137.32L137.368 16.0324C137.425 16.3242 137.549 16.5988 137.731 16.8343C138.021 17.1832 138.989 17.7689 142.201 17.7689C146.062 17.7689 146.062 17.0943 146.062 16.7317C146.062 16.12 145.615 15.9106 142.466 15.5767L141.868 15.5206C140.683 15.4098 139.184 15.2688 138.5 15.21C132.725 14.69 130.146 12.9042 130.146 9.42157C130.146 5.76378 134.534 3.40051 141.325 3.40051C146.865 3.40051 150.435 4.85378 151.932 7.72335C152.287 8.39084 152.526 9.11366 152.637 9.86083L152.686 10.2454H145.332L145.302 9.93609C145.273 9.6944 145.17 9.46767 145.005 9.28746C144.73 8.92072 143.861 8.31451 141.163 8.31451C137.851 8.31451 137.394 8.73599 137.394 9.1903C137.394 9.79651 138.441 10.0114 141.794 10.3685C143.193 10.4821 145.441 10.712 146.211 10.805C151.052 11.3278 153.212 13.0698 153.212 16.4552C153.214 19.2947 151.227 22.6829 141.762 22.6829ZM130.778 16.4292C130.847 16.8806 130.965 17.3228 131.131 17.7484C132.41 20.607 135.889 21.9987 141.762 21.9987C146.674 21.9987 152.53 21.0408 152.53 16.4552C152.53 13.4543 150.619 11.9682 146.138 11.4851C145.368 11.3921 143.133 11.1636 141.738 11.0486C138.163 10.6627 136.709 10.4575 136.709 9.1903C136.709 7.87935 138.275 7.6303 141.166 7.6303C143.45 7.6303 144.925 8.04083 145.551 8.86872C145.721 9.07269 145.85 9.30792 145.93 9.56114H151.889C151.77 9.03191 151.58 8.52072 151.326 8.04083C149.951 5.41483 146.591 4.08472 141.328 4.08472C134.955 4.08472 130.837 6.17978 130.837 9.42157C130.837 12.5142 133.148 14.0414 138.563 14.5285C139.25 14.5874 140.748 14.7283 141.936 14.8405L142.538 14.8966C145.463 15.2031 146.752 15.3947 146.752 16.7317C146.752 18.1712 145.085 18.4531 142.204 18.4531C139.539 18.4531 137.856 18.0549 137.206 17.2708C137.005 17.0208 136.854 16.7352 136.76 16.4292H130.778ZM166.275 22.6597C159.097 22.6597 155.137 19.7709 155.137 14.5244V3.67557H162.084V14.5244C162.084 16.3239 163.702 17.3557 166.522 17.3557C169.217 17.3557 170.891 16.2787 170.891 14.5477V3.67557H177.766V15.0991C177.772 19.9037 173.58 22.6597 166.271 22.6597H166.275ZM155.825 4.35978V14.5244C155.825 21.008 162.367 21.9755 166.275 21.9755C170.314 21.9755 177.089 21.0819 177.089 15.0991V4.35978H171.589V14.5477C171.589 16.6687 169.604 18.0399 166.533 18.0399C163.324 18.0399 161.407 16.7262 161.407 14.5244V4.35978H155.825ZM206.899 22.4065H200.343V13.9497L196.625 22.4065H190.906L187.227 13.9661V22.4065H180.648V3.67557H189.302L193.798 14.003L198.511 3.67557H206.907L206.899 22.4065ZM201.03 21.7223H206.212V4.35978H198.949L193.776 15.6889L188.845 4.35978H181.33V21.7223H186.534V10.6737L191.346 21.7264H196.159L201.022 10.6901L201.03 21.7223ZM8.32425 4.01767H2.0625V22.0644H19.3655V17.2599H8.32425V4.01767ZM32.0045 3.60714C24.0116 3.60714 19.8083 7.37714 19.8083 12.9124C19.8083 19.1661 24.2206 22.3381 32.0045 22.3381C40.5735 22.3381 44.1774 18.6598 44.1774 12.9124C44.1774 7.07609 40.1115 3.60441 32.0045 3.60441V3.60714ZM31.9811 8.29672C32.5252 8.29418 33.069 8.32571 33.6091 8.39114L26.609 15.3578C26.2778 14.6121 26.1162 13.8027 26.136 12.9877C26.136 10.1564 27.5688 8.29399 31.9811 8.29399V8.29672ZM32.0045 17.7224C31.4802 17.7247 30.9563 17.6954 30.4356 17.6348L37.4481 10.6559C37.767 11.3892 37.9196 12.1835 37.895 12.9822C37.895 15.7368 36.575 17.7197 32.0045 17.7197V17.7224ZM56.584 15.2592H63.0286C62.9338 15.7044 62.736 16.1214 62.4511 16.4771C61.115 17.5604 59.4099 18.0875 57.6922 17.9482C56.8277 18.0403 55.9534 17.9463 55.1286 17.6726C54.3037 17.399 53.5474 16.9521 52.9114 16.3622C52.2598 15.411 51.9502 14.2687 52.0327 13.1204C51.9273 11.9172 52.2639 10.7168 52.9801 9.74178C53.8807 8.72914 55.4056 8.29262 57.6469 8.29262C59.0729 8.17511 60.4971 8.53959 61.6894 9.32714C62.0652 9.6242 62.3461 10.0235 62.4979 10.4766H68.475C68.4315 9.7301 68.2511 8.99781 67.9429 8.31588C66.5115 5.41893 63.184 3.69472 57.5259 3.69472C52.6048 3.69472 49.302 5.18904 47.4774 7.44283C46.2723 9.07037 45.6537 11.0547 45.7215 13.0752C45.6435 15.1416 46.2462 17.1765 47.4375 18.8705C49.2401 21.1968 52.4507 22.3408 56.309 22.3408C58.8741 22.5189 61.4217 21.8039 63.5154 20.3183L63.6776 22.0644H68.6428V11.3743H56.584V15.2592ZM82.7351 3.60304C74.7436 3.60304 70.5389 7.37304 70.5389 12.9083C70.5389 19.162 74.9499 22.334 82.7351 22.334C91.3055 22.334 94.9094 18.6557 94.9094 12.9083C94.9094 7.07609 90.8435 3.60441 82.7351 3.60441V3.60304ZM82.7131 8.29262C83.2429 8.29106 83.7723 8.32122 84.2985 8.38293L77.3259 15.3263C77.005 14.5889 76.8487 13.7911 76.868 12.9877C76.8625 10.1564 78.3008 8.29399 82.7131 8.29399V8.29262ZM82.7351 17.7183C82.197 17.7206 81.6592 17.6894 81.125 17.6252L88.1609 10.6217C88.4918 11.3648 88.6502 12.1725 88.6243 12.9849C88.627 15.7368 87.3125 17.7197 82.7351 17.7197V17.7183Z" fill="#454545"/>
</svg>
