<svg width="190" height="41" viewBox="0 0 190 41" fill="none" xmlns="http://www.w3.org/2000/svg">
<path d="M28.8993 32.4706L4.19934 15.5581C1.6963 13.8443 2.54716 10.2759 5.6684 9.43682L31.9201 2.36432C32.4762 2.16514 33.072 2.10048 33.6584 2.17572C34.2447 2.25095 34.8045 2.4639 35.2913 2.79691C35.778 3.12991 36.1779 3.57335 36.4573 4.09043C36.7368 4.60751 36.8881 5.18331 36.8986 5.77005L35.3428 29.7537C35.1583 32.6005 31.4024 34.1844 28.8993 32.4706Z" fill="#454545"/>
<path d="M21.0652 36.6458L6.51364 8.39819C6.181 7.75198 6.03463 7.02711 6.09065 6.30356C6.14668 5.58 6.40293 4.88586 6.83113 4.29769C7.25935 3.70951 7.84288 3.25015 8.51739 2.97026C9.19191 2.69036 9.93119 2.60082 10.6537 2.71151L37.6213 6.84293C38.2422 6.93806 38.8314 7.17811 39.3407 7.54336C39.8499 7.90861 40.2644 8.38861 40.5504 8.9439C40.8362 9.49919 40.9853 10.1139 40.9852 10.7375C40.985 11.3611 40.8358 11.9758 40.5498 12.531L28.1269 36.6471C27.7933 37.2915 27.2871 37.8322 26.6641 38.2095C26.0411 38.587 25.3255 38.7865 24.5956 38.7864C23.8658 38.7862 23.1501 38.5864 22.5272 38.2088C21.9044 37.8311 21.3985 37.2903 21.0652 36.6458Z" fill="#454545"/>
<path d="M36.8324 6.72131L23.3892 4.66174L6.88403 9.11024L13.4721 21.9036L28.8992 32.4707C29.2396 32.7012 29.614 32.8778 30.009 32.9941L35.8687 21.6193L36.8324 6.72131Z" fill="#454545"/>
<path d="M104.925 10.0231C104.925 9.52715 105.074 9.04229 105.351 8.62987C105.629 8.21747 106.023 7.89603 106.485 7.70621C106.947 7.51641 107.455 7.46674 107.945 7.5635C108.435 7.66028 108.885 7.89913 109.238 8.24984C109.592 8.60057 109.832 9.04743 109.93 9.5339C110.027 10.0204 109.977 10.5246 109.786 10.9829C109.595 11.4411 109.271 11.8328 108.856 12.1083C108.44 12.3839 107.952 12.531 107.452 12.531C106.784 12.5242 106.145 12.2578 105.673 11.789C105.201 11.3201 104.932 10.6862 104.925 10.0231ZM105.347 13.7569H109.559V27.6887H105.347V13.7569Z" fill="#454545"/>
<path d="M127.747 20.7228C127.796 21.6436 127.66 22.5651 127.349 23.434C127.038 24.3028 126.557 25.1021 125.934 25.7859C125.31 26.4695 124.557 27.0241 123.717 27.4178C122.877 27.8114 121.966 28.0364 121.038 28.0796C120.258 28.1216 119.478 27.991 118.754 27.697C118.031 27.4029 117.382 26.9529 116.855 26.3794V33.262H112.645V13.7569H116.855V15.0662C117.382 14.4928 118.031 14.0431 118.754 13.7492C119.478 13.4555 120.258 13.325 121.038 13.3674C121.966 13.4104 122.877 13.6351 123.717 14.0286C124.557 14.4222 125.31 14.9766 125.934 15.6602C126.557 16.3439 127.038 17.1429 127.349 18.0119C127.66 18.8807 127.796 19.8019 127.747 20.7228ZM123.536 20.7228C123.52 20.0705 123.31 19.4376 122.932 18.9031C122.555 18.3687 122.028 17.9565 121.416 17.7183C120.804 17.48 120.135 17.4263 119.492 17.5636C118.849 17.701 118.262 18.0233 117.803 18.4905C117.344 18.9576 117.034 19.5488 116.912 20.1899C116.79 20.831 116.861 21.4937 117.116 22.0949C117.372 22.6961 117.8 23.2092 118.348 23.57C118.896 23.9308 119.538 24.1231 120.196 24.1231C120.647 24.1433 121.098 24.0684 121.518 23.9036C121.938 23.7386 122.319 23.4873 122.634 23.1663C122.949 22.8451 123.193 22.4615 123.348 22.0403C123.504 21.6192 123.568 21.1701 123.536 20.7228Z" fill="#454545"/>
<path d="M140.742 23.5067C140.742 26.7115 137.935 28.0768 134.903 28.0768C133.678 28.1868 132.448 27.9295 131.373 27.3381C130.297 26.7469 129.424 25.8487 128.868 24.7599L132.517 22.699C132.665 23.2023 132.983 23.6398 133.418 23.9383C133.852 24.2368 134.376 24.3782 134.903 24.339C135.914 24.339 136.418 24.0315 136.418 23.4752C136.418 21.9418 129.513 22.7509 129.513 17.9293C129.513 14.8926 132.094 13.3605 135.02 13.3605C136.118 13.3264 137.204 13.5848 138.166 14.1091C139.13 14.6333 139.933 15.4041 140.493 16.3412L136.901 18.2641C136.744 17.8984 136.482 17.5867 136.147 17.368C135.813 17.1492 135.421 17.0332 135.02 17.0341C134.29 17.0341 133.842 17.3075 133.842 17.8145C133.837 19.4135 140.742 18.3543 140.742 23.5067Z" fill="#454545"/>
<path d="M156.131 13.7568V27.6886H151.921V26.3766C151.435 26.9546 150.816 27.41 150.118 27.7056C149.422 28.0011 148.663 28.1283 147.906 28.0768C145.071 28.0768 142.657 26.0705 142.657 22.3081V13.7568H146.867V21.6985C146.832 22.0306 146.87 22.3664 146.979 22.6824C147.088 22.9984 147.264 23.2871 147.497 23.5285C147.729 23.7699 148.012 23.9579 148.324 24.0797C148.638 24.2016 148.974 24.2541 149.31 24.2337C150.854 24.2337 151.926 23.3426 151.926 21.3637V13.7568H156.131Z" fill="#454545"/>
<path d="M180.264 19.1333V27.6887H176.054V19.4969C176.054 18.1042 175.379 17.2118 174.032 17.2118C172.628 17.2118 171.843 18.1876 171.843 19.8317V27.6887H167.631V19.4969C167.631 18.1042 166.958 17.2118 165.61 17.2118C164.207 17.2118 163.421 18.1876 163.421 19.8317V27.6887H159.21V13.7569H163.428V15.0333C163.864 14.4649 164.437 14.0142 165.094 13.7222C165.75 13.4302 166.472 13.3064 167.189 13.3619C167.909 13.3269 168.628 13.4779 169.273 13.8001C169.917 14.1222 170.466 14.6045 170.867 15.2001C171.334 14.577 171.952 14.0815 172.664 13.76C173.376 13.4385 174.159 13.3016 174.938 13.3619C178.16 13.3674 180.264 15.6511 180.264 19.1333Z" fill="#454545"/>
<path d="M183.831 13.6708C185.557 13.6708 186.956 12.2818 186.956 10.5685C186.956 8.8551 185.557 7.46613 183.831 7.46613C182.104 7.46613 180.705 8.8551 180.705 10.5685C180.705 12.2818 182.104 13.6708 183.831 13.6708Z" fill="#454545"/>
<path d="M47.4408 7.34851H51.6525V27.6887H47.4408V7.34851ZM54.0371 20.7228C54.0326 19.2621 54.4646 17.833 55.2787 16.6164C56.0928 15.3996 57.2524 14.4501 58.6105 13.8879C59.9687 13.3258 61.4642 13.1763 62.908 13.4585C64.3518 13.7406 65.6787 14.4416 66.7208 15.4729C67.7629 16.504 68.4734 17.8189 68.7621 19.2512C69.0508 20.6834 68.905 22.1684 68.343 23.5183C67.781 24.8682 66.8281 26.0222 65.6049 26.8341C64.3818 27.646 62.9434 28.0795 61.4719 28.0795C60.4946 28.0898 59.5251 27.9068 58.6198 27.5411C57.7147 27.1754 56.8919 26.6342 56.1998 25.9493C55.5075 25.2644 54.9598 24.4494 54.5885 23.5521C54.2172 22.6547 54.0298 21.6928 54.0371 20.7228ZM64.7046 20.7228C64.6881 20.0926 64.4849 19.4814 64.1202 18.9655C63.7556 18.4496 63.2458 18.0518 62.6546 17.8219C62.0632 17.5922 61.4169 17.5404 60.7963 17.6733C60.1756 17.8062 59.6082 18.1179 59.165 18.5692C58.7218 19.0206 58.4227 19.5916 58.3047 20.2108C58.1868 20.8302 58.2554 21.4702 58.5021 22.051C58.7487 22.6317 59.1624 23.1274 59.6914 23.4761C60.2204 23.8247 60.8412 24.0107 61.476 24.011C61.9108 24.0233 62.3435 23.9459 62.7467 23.784C63.1499 23.6222 63.5149 23.379 63.8188 23.07C64.1227 22.7612 64.3588 22.3931 64.5122 21.9891C64.6655 21.585 64.733 21.1538 64.7101 20.7228H64.7046ZM85.6996 13.7528V26.9889C85.6996 31.6698 82.0222 33.6473 78.2896 33.6473C76.9759 33.7457 75.6601 33.4832 74.4865 32.8884C73.313 32.2938 72.3271 31.3897 71.6369 30.2758L75.229 28.2135C75.5189 28.7949 75.9809 29.2746 76.5529 29.5885C77.125 29.9023 77.7798 30.0352 78.4301 29.9696C78.8452 30.0258 79.2676 29.9889 79.6663 29.8614C80.065 29.7339 80.4298 29.5193 80.7337 29.2332C81.0376 28.9471 81.2729 28.597 81.4223 28.2084C81.5717 27.82 81.6313 27.4032 81.5967 26.9889V25.707C81.1036 26.3056 80.4759 26.7812 79.7642 27.0957C79.0524 27.4102 78.2763 27.5547 77.498 27.5178C75.6455 27.4606 73.888 26.6899 72.5979 25.3689C71.3078 24.0479 70.5864 22.2804 70.5864 20.4406C70.5864 18.6006 71.3078 16.8331 72.5979 15.5121C73.888 14.1911 75.6455 13.4204 77.498 13.3632C78.2763 13.3263 79.0524 13.4708 79.7642 13.7853C80.4759 14.0998 81.1036 14.5754 81.5967 15.1741V13.7528H85.6996ZM81.6022 20.4399C81.6301 19.7669 81.4544 19.1012 81.0979 18.5282C80.7415 17.9551 80.2205 17.501 79.6019 17.2242C78.9834 16.9475 78.2956 16.8607 77.627 16.9751C76.9584 17.0895 76.3395 17.3997 75.8499 17.866C75.3603 18.3323 75.0225 18.9333 74.8798 19.5916C74.737 20.2501 74.796 20.9357 75.049 21.5607C75.302 22.1855 75.7376 22.721 76.2996 23.0982C76.8616 23.4754 77.5245 23.6771 78.2029 23.6775C78.6453 23.7083 79.0893 23.6469 79.5063 23.4972C79.9234 23.3476 80.3042 23.1129 80.6244 22.8083C80.9445 22.5038 81.197 22.1361 81.3654 21.7289C81.5338 21.3217 81.6145 20.8839 81.6022 20.444V20.4399ZM88.0843 20.7132C88.0797 19.2525 88.5118 17.8234 89.3259 16.6068C90.14 15.39 91.2995 14.4405 92.6576 13.8784C94.0159 13.3162 95.5113 13.1668 96.9552 13.4489C98.3989 13.731 99.7258 14.432 100.768 15.4633C101.81 16.4944 102.521 17.8093 102.809 19.2416C103.098 20.6739 102.952 22.1589 102.39 23.5087C101.828 24.8586 100.875 26.0126 99.6521 26.8245C98.4289 27.6365 96.9906 28.07 95.5191 28.07C94.5426 28.0802 93.5739 27.8975 92.6693 27.5323C91.7648 27.1673 90.9424 26.6269 90.2504 25.943C89.5583 25.2592 89.0105 24.4454 88.6386 23.549C88.2666 22.6528 88.0782 21.692 88.0843 20.7228V20.7132ZM98.7518 20.7132C98.7356 20.0828 98.5323 19.471 98.1678 18.9546C97.803 18.4383 97.2929 18.0401 96.7015 17.81C96.1098 17.5799 95.4632 17.5281 94.8421 17.661C94.221 17.7939 93.6532 18.1057 93.2099 18.5573C92.7664 19.009 92.4669 19.5804 92.3491 20.2C92.2311 20.8197 92.2999 21.4602 92.5468 22.0412C92.7938 22.6223 93.2078 23.1181 93.7372 23.4669C94.2667 23.8155 94.8879 24.0014 95.5232 24.0014C95.9567 24.0128 96.3878 23.9353 96.7897 23.7736C97.1916 23.6119 97.5555 23.3695 97.8587 23.0617C98.1617 22.7539 98.3976 22.3872 98.5512 21.9848C98.705 21.5823 98.7733 21.1526 98.7518 20.7228V20.7132Z" fill="#454545"/>
</svg>
