<svg width="224" height="57" viewBox="0 0 224 57" fill="none" xmlns="http://www.w3.org/2000/svg">
<path d="M41.5156 24.0472C45.8279 24.0472 46.7982 25.897 46.7982 28.2042C46.7982 30.6497 45.6246 32.4018 41.5335 32.4018C37.4685 32.4018 36.2935 30.7515 36.2935 28.2042C36.2935 25.6975 37.5743 24.0472 41.5156 24.0472Z" fill="#454545"/>
<path d="M86.5822 24.0472C90.8945 24.0472 91.8647 25.897 91.8647 28.2042C91.8647 30.6497 90.6898 32.4018 86.6001 32.4018C82.5365 32.4018 81.3601 30.7515 81.3601 28.2042C81.3601 25.6975 82.6409 24.0472 86.5822 24.0472Z" fill="#454545"/>
<path fill-rule="evenodd" clip-rule="evenodd" d="M3.33496 52.25V4.13519H221.258V52.25H3.33496ZM107.197 49.5357H218.51V6.84948H107.197V49.5357ZM41.5362 36.4976C49.1921 36.4976 52.4105 33.2364 52.4105 28.143C52.4105 22.9669 48.7853 19.8903 41.5362 19.8903C34.3985 19.8903 30.6413 23.2315 30.6413 28.143C30.6413 33.6856 34.5826 36.4976 41.5362 36.4976ZM14.9187 20.2567V36.2533H30.3706V31.9933H20.5091V20.2567H14.9187ZM69.7039 36.2533L69.5596 34.7035C67.6894 36.0215 65.4131 36.6559 63.1213 36.4976C59.6761 36.4976 56.8067 35.4784 55.1975 33.421C54.136 31.9189 53.6001 30.1158 53.6707 28.2855C53.6104 26.4937 54.1649 24.7343 55.2442 23.2926C56.8727 21.2963 59.8245 19.9717 64.2193 19.9717C69.2751 19.9717 72.2462 21.4998 73.5242 24.0675C73.7985 24.6723 73.9597 25.321 73.9997 25.9825H68.6512C68.5164 25.5805 68.2656 25.2263 67.9297 24.9633C66.8643 24.2657 65.592 23.9431 64.3183 24.0472C63.5711 23.9578 62.8131 24.0259 62.0946 24.2472C61.3762 24.4686 60.7134 24.838 60.1502 25.3311C59.5106 26.1956 59.2104 27.2598 59.3051 28.3263C59.2308 29.3437 59.5069 30.3561 60.0884 31.1993C60.6566 31.7222 61.3322 32.1183 62.0691 32.3609C62.8061 32.6034 63.587 32.6869 64.3595 32.6053C65.8935 32.7286 67.4166 32.2613 68.61 31.3011C68.8663 30.9846 69.043 30.6125 69.1253 30.2154H63.37V26.7778H74.1399V36.2533H69.7039ZM86.6028 36.4976C94.2573 36.4976 97.4771 33.2364 97.4771 28.143C97.4771 22.9669 93.8463 19.8903 86.6028 19.8903C79.4651 19.8903 75.7079 23.2315 75.7079 28.143C75.7079 33.6856 79.6492 36.4976 86.6028 36.4976Z" fill="#454545"/>
<path d="M116.613 36.1923V20.1956H120.599V36.1923H116.613Z" fill="#454545"/>
<path d="M141.064 29.5083C140.054 30.8126 138.315 31.4083 135.865 31.4233C135.348 31.4233 128.498 31.4029 128.498 31.4029V36.1923H124.598V20.1956H135.866C136.77 20.1013 137.683 20.1959 138.546 20.4732C139.411 20.7506 140.205 21.2044 140.88 21.8052C141.77 22.9509 142.203 24.3794 142.097 25.8196C142.188 27.1295 141.824 28.4309 141.064 29.5083ZM137.866 24.2928C137.454 23.6821 136.564 23.3429 135.06 23.3429H128.477V28.2123H135.017C136.626 28.2123 137.474 27.8866 137.866 27.2541C138.098 26.8086 138.198 26.3069 138.154 25.8074C138.189 25.2866 138.09 24.7655 137.866 24.2928Z" fill="#454545"/>
<path d="M153.59 36.4366C146.243 36.4366 143.995 33.7223 143.995 31.0365H148.163C148.163 32.3611 149.999 33.3599 153.775 33.3599C157.53 33.3599 158.521 32.7071 158.521 31.6472C158.521 30.4651 157.778 30.0987 154.291 29.7119C153.604 29.6509 151.733 29.4269 151.031 29.3251C146.084 28.7741 144.179 27.3274 144.179 24.7394C144.179 22.0088 146.966 19.9514 153.011 19.9514C159.573 19.9514 162.091 22.4987 162.091 25.1479H157.968C157.968 23.8029 156.421 23.028 152.768 23.028C149.012 23.028 148.208 23.5369 148.208 24.5358C148.208 25.5754 149.033 25.9011 153.018 26.3693C153.926 26.4928 155.948 26.7167 156.505 26.7764C160.715 27.2039 162.613 28.7117 162.613 31.3812C162.606 34.561 159.717 36.4366 153.59 36.4366Z" fill="#454545"/>
<path d="M174.349 36.4162C168.965 36.4162 165.456 34.3167 165.456 29.9019V20.1956H169.396V29.9562C169.396 31.9743 171.069 33.3178 174.514 33.3178C177.629 33.3178 179.487 32.0557 179.487 29.9562V20.1956H183.387V30.2643C183.387 34.2773 180.126 36.4162 174.349 36.4162Z" fill="#454545"/>
<path d="M204.743 36.1923V25.5143L199.687 36.1923H195.85L190.939 25.5143V36.1923H187.228V20.1956H192.255L197.826 32.3814L203.521 20.1956H208.468V36.1923H204.743Z" fill="#454545"/>
</svg>
