<svg width="174" height="54" viewBox="0 0 174 54" fill="none" xmlns="http://www.w3.org/2000/svg">
<path d="M26.7166 2.75372C23.568 2.75372 20.4501 3.37703 17.5411 4.58785C14.6322 5.79881 11.9892 7.5736 9.76265 9.81102C7.53627 12.0486 5.77024 14.7047 4.56526 17.6281C3.36041 20.5515 2.74017 23.6848 2.74017 26.849C2.74017 30.0132 3.36041 33.1465 4.56526 36.0699C5.77024 38.9933 7.53627 41.6494 9.76265 43.887C11.9892 46.1244 14.6322 47.8992 17.5411 49.1101C20.4501 50.3209 23.568 50.9443 26.7166 50.9443V38.8966C25.1422 38.8966 23.5833 38.585 22.1288 37.9795C20.6744 37.3741 19.3528 36.4867 18.2396 35.368C17.1264 34.2493 16.2434 32.9211 15.641 31.4594C15.0384 29.9978 14.7284 28.4312 14.7284 26.849C14.7284 25.2668 15.0384 23.7002 15.641 22.2385C16.2434 20.7768 17.1264 19.4487 18.2396 18.33C19.3528 17.2113 20.6744 16.3239 22.1288 15.7185C23.5833 15.1129 25.1422 14.8014 26.7166 14.8014V2.75372Z" fill="#454545"/>
<path d="M26.7167 34.8807C31.1307 34.8807 34.7088 31.2849 34.7088 26.849C34.7088 22.4132 31.1307 18.8173 26.7167 18.8173C22.3027 18.8173 18.7246 22.4132 18.7246 26.849C18.7246 31.2849 22.3027 34.8807 26.7167 34.8807Z" fill="#454545"/>
<path d="M2.74017 26.849C2.74017 30.0132 3.36041 33.1465 4.56526 36.0699C5.77024 38.9933 7.53627 41.6494 9.76265 43.887C11.9892 46.1244 14.6322 47.8992 17.5411 49.1101C20.4501 50.321 23.568 50.9443 26.7166 50.9443C29.8651 50.9443 32.983 50.321 35.892 49.1101C38.8009 47.8992 41.4439 46.1244 43.6705 43.887C45.8968 41.6494 47.6629 38.9933 48.8678 36.0699C50.0727 33.1465 50.6929 30.0132 50.6929 26.849H38.7047C38.7047 28.4312 38.3947 29.9978 37.7921 31.4595C37.1897 32.9211 36.3067 34.2493 35.1935 35.368C34.0803 36.4867 32.7587 37.3741 31.3043 37.9795C29.8498 38.585 28.2909 38.8966 26.7166 38.8966C25.1422 38.8966 23.5833 38.585 22.1288 37.9795C20.6744 37.3741 19.3528 36.4867 18.2396 35.368C17.1264 34.2493 16.2434 32.9211 15.641 31.4595C15.0384 29.9978 14.7284 28.4312 14.7284 26.849H2.74017Z" fill="#454545"/>
<path d="M34.7088 26.849C34.7088 24.7188 33.8667 22.676 32.368 21.1697C30.8691 19.6634 28.8364 18.8171 26.7167 18.8171C24.5971 18.8171 22.5643 19.6634 21.0654 21.1697C19.5665 22.676 18.7245 24.7188 18.7245 26.849H26.7167H34.7088Z" fill="#454545"/>
<path d="M63.2149 17.7961H60.237V34.4218H63.2149V17.7961Z" fill="#454545"/>
<path d="M65.1594 28.5316C65.1594 32.3792 67.8064 34.7543 71.3042 34.7543C74.802 34.7543 77.449 32.3792 77.449 28.5316C77.449 24.6839 74.802 22.3088 71.3042 22.3088C67.8064 22.3088 65.1594 24.6839 65.1594 28.5316ZM68.1373 28.5316C68.1373 26.2515 69.4608 24.9214 71.3042 24.9214C73.1477 24.9214 74.4712 26.2515 74.4712 28.5316C74.4712 30.8117 73.1477 32.1417 71.3042 32.1417C69.4608 32.1417 68.1373 30.8117 68.1373 28.5316Z" fill="#454545"/>
<path d="M88.0906 22.6413V24.2325H87.8543C87.1452 23.2113 86.0108 22.3088 83.9783 22.3088C81.1895 22.3088 78.6843 24.6839 78.6843 28.3415C78.6843 31.9992 81.1895 34.3743 83.9783 34.3743C86.0108 34.3743 87.1452 33.448 87.807 32.5217H88.0433V33.6618C88.0433 35.9419 86.7198 36.9869 84.7819 36.9869C82.8439 36.9869 81.8513 35.9419 81.4494 34.588L78.7789 35.7519C79.3933 37.5331 81.1895 39.5045 84.8291 39.5045C88.5633 39.5045 91.0212 37.5331 91.0212 33.733V22.6413H88.0906ZM84.8764 31.8092C83.033 31.8092 81.6622 30.4791 81.6622 28.3415C81.6622 26.2039 83.033 24.8739 84.8764 24.8739C86.7198 24.8739 88.0906 26.2039 88.0906 28.3415C88.0906 30.4791 86.7198 31.8092 84.8764 31.8092Z" fill="#454545"/>
<path d="M92.9476 28.5316C92.9476 32.3792 95.5946 34.7543 99.0924 34.7543C102.59 34.7543 105.237 32.3792 105.237 28.5316C105.237 24.6839 102.59 22.3088 99.0924 22.3088C95.5946 22.3088 92.9476 24.6839 92.9476 28.5316ZM95.9255 28.5316C95.9255 26.2515 97.249 24.9214 99.0924 24.9214C100.936 24.9214 102.259 26.2515 102.259 28.5316C102.259 30.8117 100.936 32.1417 99.0924 32.1417C97.249 32.1417 95.9255 30.8117 95.9255 28.5316Z" fill="#454545"/>
<path d="M107.574 19.2211C107.574 20.4325 108.497 21.2637 109.679 21.2637C110.86 21.2637 111.782 20.4325 111.782 19.2211C111.782 18.0099 110.86 17.1785 109.679 17.1785C108.497 17.1785 107.574 18.0099 107.574 19.2211ZM111.167 22.6413H108.19V34.4218H111.167V22.6413Z" fill="#454545"/>
<path d="M113.821 39.172H116.799V32.9017H117.035C117.697 33.8518 118.831 34.7543 120.864 34.7543C123.652 34.7543 126.158 32.3792 126.158 28.5316C126.158 24.6839 123.652 22.3088 120.864 22.3088C118.831 22.3088 117.697 23.2113 116.988 24.2327H116.751V22.6413H113.821V39.172ZM119.965 32.1892C118.123 32.1892 116.751 30.8592 116.751 28.5316C116.751 26.204 118.123 24.8739 119.965 24.8739C121.81 24.8739 123.18 26.204 123.18 28.5316C123.18 30.8592 121.81 32.1892 119.965 32.1892Z" fill="#454545"/>
<path d="M127.895 25.9428C127.895 28.2704 129.833 29.1254 132.291 29.6004L132.906 29.7191C134.37 30.0041 135.032 30.3605 135.032 31.1205C135.032 31.8805 134.37 32.4742 133 32.4742C131.629 32.4742 130.519 31.9042 130.211 30.1941L127.469 30.9067C127.872 33.3768 129.927 34.7543 133 34.7543C135.978 34.7543 137.916 33.3531 137.916 30.883C137.916 28.4127 135.931 27.7478 133.284 27.2253L132.669 27.1065C131.44 26.869 130.778 26.5365 130.778 25.7527C130.778 25.0402 131.393 24.5889 132.528 24.5889C133.662 24.5889 134.465 25.0639 134.749 26.3465L137.444 25.5152C136.876 23.6152 135.151 22.3088 132.528 22.3088C129.738 22.3088 127.895 23.6152 127.895 25.9428Z" fill="#454545"/>
<path d="M151.292 34.4218V22.6413H148.315V28.7216C148.315 30.9067 147.252 32.1892 145.431 32.1892C143.824 32.1892 142.927 31.3105 142.927 29.5291V22.6413H139.948V29.6716C139.948 32.5931 141.769 34.6118 144.51 34.6118C146.66 34.6118 147.653 33.6618 148.126 32.6642H148.362V34.4218H151.292Z" fill="#454545"/>
<path d="M153.934 22.6413V34.4218H156.912V27.3915C156.912 25.7764 157.669 24.8739 159.039 24.8739C160.221 24.8739 160.929 25.5389 160.929 26.8215V34.4218H163.908V27.3915C163.908 25.7764 164.664 24.8739 166.034 24.8739C167.217 24.8739 167.925 25.5389 167.925 26.8215V34.4218H170.904V26.679C170.904 23.8289 169.154 22.4513 166.98 22.4513C165.066 22.4513 164.192 23.3063 163.624 24.3039H163.387C162.843 23.1876 161.875 22.4513 160.173 22.4513C158.472 22.4513 157.549 23.2113 157.101 24.1139H156.864V22.6413H153.934Z" fill="#454545"/>
</svg>
